<svg width="2160" height="1597" viewBox="0 0 2160 1597" fill="none" xmlns="http://www.w3.org/2000/svg">
<path d="M1819.98 974.459C1823.21 984.144 1819.52 994.522 1814.68 1003.52C1801.53 1028.19 1780.32 1048.49 1754.95 1060.25C1740.88 1066.94 1725.66 1070.86 1711.13 1076.85C1668.93 1094.38 1634.56 1129.43 1618.19 1172.09C1623.03 1142.58 1607.58 1113.29 1588.67 1090C1569.99 1066.71 1547.39 1045.72 1534.01 1018.97C1522.48 995.906 1522.25 961.776 1545.54 950.705C1562.61 942.633 1584.06 951.628 1601.59 944.247C1607.81 941.48 1613.35 935.945 1613.12 929.258C1612.19 912.191 1578.52 913.345 1577.6 896.281C1576.68 876.678 1628.34 882.445 1621.65 863.765C1618.88 855.923 1607.81 853.617 1604.12 846.238C1600.2 838.86 1600.43 828.481 1607.12 823.177C1615.65 816.259 1628.57 821.793 1639.41 819.256C1651.63 816.489 1659.47 804.037 1662.01 791.584C1664.55 779.131 1663.16 766.447 1665.01 753.994C1669.39 723.322 1694.53 696.803 1724.74 690.345C1754.95 683.888 1788.62 698.186 1804.99 724.475C1811.68 735.314 1815.37 749.843 1808.22 760.219C1801.99 768.981 1788.62 774.748 1789.77 785.357C1791.15 799.886 1818.14 801.269 1818.6 815.798C1819.06 832.865 1784 832.865 1784.93 849.929C1785.39 857.539 1793.46 861.921 1798.3 867.916C1807.53 878.985 1803.84 898.125 1791.15 905.043C1786.08 907.81 1780.09 908.964 1776.16 912.884C1766.02 922.8 1775.93 940.327 1787.93 947.707C1799.92 955.088 1815.6 960.853 1819.98 974.459Z" fill="url(#paint0_linear_600_2)"/>
<path d="M1731.42 975.612C1738.57 971.691 1746.18 968.001 1751.95 962.006C1763.71 949.091 1763.02 929.72 1763.94 912.193C1764.86 894.667 1771.09 874.143 1787.93 869.529C1801.99 865.609 1819.75 874.141 1830.13 863.995C1834.05 860.305 1835.67 854.77 1838.43 850.159C1850.43 830.095 1882.02 831.709 1899.55 847.161C1916.84 862.611 1923.53 886.595 1929.3 909.196C1931.37 917.498 1931.6 929.029 1923.53 931.334C1915.69 933.41 1907.85 923.723 1900.47 926.723C1894.48 929.029 1894.01 937.561 1896.32 943.789C1898.4 949.784 1902.08 956.011 1900.7 962.469C1897.93 974.461 1881.1 975.151 1869.11 971.924C1857.11 968.696 1841.66 965.466 1834.74 975.844C1842.36 1000.06 1848.81 1029.58 1831.75 1048.72C1812.14 1070.63 1775.94 1068.32 1746.65 1071.09C1692.22 1076.16 1653.71 1117.67 1623.03 1163.1C1621.19 1087 1664.77 1011.82 1731.42 975.612Z" fill="url(#paint1_linear_600_2)"/>
<path d="M1663.16 1128.51C1662.93 1128.51 1662.93 1128.51 1662.7 1128.51C1662.01 1128.28 1661.77 1127.58 1662.01 1127.12C1689.68 1042.49 1733.73 983.683 1814.22 924.416C1829.21 913.347 1874.41 894.667 1894.01 893.053C1894.47 893.053 1895.17 893.513 1895.17 894.206C1895.17 894.899 1894.71 895.36 1894.01 895.36C1875.33 896.974 1829.9 915.654 1815.6 926.262C1735.34 985.299 1691.53 1043.64 1664.08 1127.82C1664.08 1128.05 1663.62 1128.51 1663.16 1128.51Z" fill="white"/>
<path d="M1705.82 880.368L1696.6 855C1693.37 854.77 1689.91 855.231 1686.68 856.384L1696.6 883.596C1697.06 885.21 1696.37 886.824 1694.75 887.286C1693.14 887.747 1691.53 887.056 1691.06 885.442L1681.15 858.691C1678.15 860.535 1675.61 863.072 1673.54 865.839L1681.84 888.44C1682.3 890.054 1681.61 891.667 1679.99 892.13C1678.38 892.591 1676.77 891.9 1676.3 890.286L1669.85 872.529C1666.16 881.754 1665.93 893.516 1670.08 905.045C1670.08 905.276 1670.31 905.506 1670.31 905.738C1668.23 906.891 1665.93 908.275 1664.08 909.889C1658.31 914.04 1650.93 921.188 1648.4 931.336L1651.16 932.029C1653.47 922.804 1660.39 916.116 1665.69 912.426C1667.54 911.042 1669.38 909.889 1671.46 908.736C1675.84 918.421 1682.99 926.262 1690.83 930.413L1684.6 913.579C1684.14 911.965 1684.83 910.352 1686.45 909.889C1688.06 909.426 1689.67 910.119 1690.14 911.733L1698.21 933.411C1701.67 934.334 1705.13 934.564 1708.59 933.871L1699.36 908.503C1698.9 906.889 1699.59 905.276 1701.21 904.813C1702.82 904.352 1704.43 905.043 1704.9 906.657L1714.35 932.255C1717.35 930.871 1720.12 928.795 1722.42 926.49L1713.89 903.429C1713.43 901.815 1714.12 900.202 1715.74 899.739C1717.35 899.278 1718.96 899.969 1719.43 901.583L1726.81 921.416C1729.11 917.956 1731.19 914.268 1733.03 910.347L1728.42 897.895C1727.96 896.281 1728.65 894.667 1730.27 894.204C1731.88 893.744 1733.49 894.435 1733.96 896.049L1736.49 902.736C1741.11 891.667 1744.1 880.829 1748.03 877.369C1741.57 875.985 1732.57 869.99 1722.66 864.453L1725.88 872.985C1726.35 874.599 1725.65 876.213 1724.04 876.676C1722.43 877.136 1720.81 876.445 1720.35 874.832L1715.05 860.303C1711.12 858.458 1707.2 857.075 1703.28 856.152L1711.35 878.522C1711.82 880.136 1711.12 881.75 1709.51 882.212C1708.13 882.675 1706.52 881.982 1705.82 880.368Z" fill="white"/>
<path d="M992.277 1162.87H1249.65V1449.06H992.277V1162.87Z" fill="#D6D7D8"/>
<path d="M832.914 1439.83H1409.01V1461.97H832.914V1439.83Z" fill="#428DFC"/>
<path d="M555.706 615.625H1686.22V1347.59H555.706V615.625Z" fill="url(#paint2_linear_600_2)"/>
<path d="M575.54 633.844H1666.39V1236.66H575.54V633.844Z" fill="white"/>
<path d="M1080.42 1308.09L1065.58 1293.25L1080.42 1278.41L1095.26 1293.25L1080.42 1308.09Z" fill="#A1C3FC"/>
<path d="M1120.91 1308.06L1106.07 1293.22L1120.9 1278.38L1135.74 1293.22L1120.91 1308.06Z" fill="white"/>
<path d="M1161.39 1308.12L1146.55 1293.28L1161.39 1278.45L1176.22 1293.28L1161.39 1308.12Z" fill="#1D72D8"/>
<path d="M425.231 1322.35C424.814 1331.52 430.456 1339.86 436.938 1346.53C454.495 1365.08 478.116 1377.8 503.199 1381.96C517.203 1384.26 531.626 1384.26 545.84 1385.92C587.228 1391.14 625.897 1413.65 650.772 1447C639.276 1422.2 645.964 1392.8 656.834 1367.79C667.703 1342.78 682.544 1319.01 687.769 1292.33C692.368 1269.4 684.215 1239.17 661.014 1235.21C643.873 1232.3 627.151 1245.43 610.011 1242.93C603.949 1242.09 597.469 1238.55 596.215 1232.5C592.87 1217.29 622.971 1210.2 619.417 1194.98C615.446 1177.47 571.342 1194.98 572.805 1177.26C573.433 1169.76 582.42 1165.17 584.092 1157.67C585.763 1150.16 583.046 1141.2 575.939 1138.28C566.741 1134.32 556.708 1142.24 546.675 1142.66C535.179 1143.29 525.355 1134.11 520.128 1123.9C514.901 1113.69 513.021 1102.01 508.422 1091.59C497.135 1065.74 468.708 1048.44 440.487 1050.11C412.269 1051.78 386.141 1072.41 377.989 1099.51C374.644 1110.56 374.852 1124.32 383.842 1131.82C391.366 1138.07 404.536 1139.74 406.207 1149.33C408.507 1162.46 385.096 1170.17 388.23 1183.1C391.784 1198.32 422.928 1189.77 426.064 1204.99C427.527 1211.87 421.465 1217.7 418.748 1223.96C413.314 1235.84 421.256 1251.68 434.006 1254.81C439.023 1256.06 444.667 1255.43 449.264 1257.93C460.551 1264.19 456.163 1281.91 447.382 1291.29C438.192 1300.88 426.068 1309.42 425.231 1322.35Z" fill="url(#paint3_linear_600_2)"/>
<path d="M503.965 1302.15C496.652 1300.48 489.131 1299.01 482.654 1295.03C469.074 1286.44 465.105 1269.06 460.09 1253.98C455.076 1238.91 444.629 1222.15 428.75 1222.15C415.378 1222.15 401.797 1234.09 390.307 1227.6C385.918 1225.08 383.203 1220.68 379.651 1217.33C364.399 1202.67 336.819 1211.68 325.329 1229.48C313.838 1247.28 313.838 1270.11 314.047 1291.47C314.255 1299.22 316.762 1309.48 324.494 1309.48C331.807 1309.48 336.404 1299.01 343.717 1299.85C349.567 1300.48 352.074 1308.02 351.655 1313.88C351.238 1319.74 349.565 1326.03 352.283 1331.26C357.506 1341.31 372.759 1337.75 382.37 1331.89C391.981 1326.02 404.934 1319.53 413.5 1327.07C412.664 1350.32 414.128 1377.96 433.768 1390.53C456.332 1404.98 487.672 1394.3 513.999 1389.69C563.098 1380.89 607.183 1408.33 645 1441C627.655 1373.57 571.241 1317.86 503.965 1302.15Z" fill="url(#paint4_linear_600_2)"/>
<path d="M645.88 1450.67C627.429 1402.47 612.669 1352.89 601.369 1302.62" stroke="#428DFC" stroke-width="2" stroke-miterlimit="10" stroke-linecap="round"/>
<path d="M632.446 1306.4C631.338 1301.57 620.055 1300.03 607.244 1302.97C594.434 1305.9 584.947 1312.2 586.055 1317.03C587.163 1321.87 598.446 1323.4 611.257 1320.46C624.067 1317.53 633.554 1311.23 632.446 1306.4Z" fill="#23286B"/>
<path d="M608 1311C602.681 1285.14 598.349 1259.28 595 1233" stroke="#428DFC" stroke-width="2" stroke-miterlimit="10" stroke-linecap="round"/>
<path d="M620.9 1217.7C619.034 1212.12 605.377 1211.66 590.398 1216.68C575.418 1221.69 564.788 1230.28 566.654 1235.85C568.521 1241.43 582.177 1241.88 597.157 1236.87C612.136 1231.86 622.766 1223.27 620.9 1217.7Z" fill="#23286B"/>
<path d="M594 1226C590.967 1204.33 588.633 1182.67 587 1161" stroke="#428DFC" stroke-width="2" stroke-miterlimit="10" stroke-linecap="round"/>
<path d="M617.339 1152.99C617.277 1147.12 604.423 1142.49 588.63 1142.65C572.836 1142.82 560.083 1147.72 560.146 1153.6C560.208 1159.48 573.062 1164.11 588.855 1163.94C604.649 1163.77 617.402 1158.87 617.339 1152.99Z" fill="#23286B"/>
<path d="M587 1152C585.856 1135.47 585.285 1118.74 585 1102" stroke="#428DFC" stroke-width="2" stroke-miterlimit="10" stroke-linecap="round"/>
<path d="M624.022 1092.77C623.937 1084.82 606.673 1078.55 585.461 1078.78C564.249 1079 547.122 1085.63 547.206 1093.58C547.291 1101.54 564.555 1107.8 585.767 1107.58C606.979 1107.35 624.106 1100.72 624.022 1092.77Z" fill="#23286B"/>
<path d="M585 1090C585.249 1079 585.499 1068 586 1057" stroke="#428DFC" stroke-width="2" stroke-miterlimit="10" stroke-linecap="round"/>
<path d="M548.557 1382.41L557.782 1357.04C561.01 1356.81 564.47 1357.27 567.698 1358.43L557.782 1385.64C557.322 1387.25 558.012 1388.87 559.626 1389.33C561.24 1389.79 562.854 1389.1 563.317 1387.49L573.233 1360.73C576.231 1362.58 578.768 1365.11 580.844 1367.88L572.542 1390.48C572.082 1392.1 572.772 1393.71 574.386 1394.17C576 1394.64 577.614 1393.94 578.077 1392.33L584.535 1374.57C588.225 1383.8 588.456 1395.56 584.305 1407.09C584.305 1407.32 584.074 1407.55 584.074 1407.78C586.151 1408.93 588.456 1410.32 590.302 1411.93C596.067 1416.08 603.448 1423.23 605.985 1433.38L603.218 1434.07C600.911 1424.85 593.993 1418.16 588.688 1414.47C586.844 1413.09 584.998 1411.93 582.923 1410.78C578.542 1420.46 571.391 1428.31 563.551 1432.46L569.779 1415.62C570.24 1414.01 569.549 1412.39 567.935 1411.93C566.321 1411.47 564.707 1412.16 564.244 1413.78L556.172 1435.45C552.712 1436.38 549.254 1436.61 545.794 1435.91L555.019 1410.55C555.48 1408.93 554.789 1407.32 553.175 1406.86C551.561 1406.39 549.947 1407.09 549.484 1408.7L540.029 1434.3C537.031 1432.91 534.264 1430.84 531.957 1428.53L540.489 1405.47C540.95 1403.86 540.259 1402.24 538.645 1401.78C537.031 1401.32 535.417 1402.01 534.955 1403.63L527.576 1423.46C525.269 1420 523.194 1416.31 521.348 1412.39L525.959 1399.94C526.42 1398.32 525.729 1396.71 524.115 1396.25C522.501 1395.78 520.887 1396.48 520.425 1398.09L517.888 1404.78C513.276 1393.71 510.276 1382.87 506.355 1379.41C512.813 1378.03 521.806 1372.03 531.724 1366.5L528.497 1375.03C528.036 1376.64 528.727 1378.26 530.341 1378.72C531.955 1379.18 533.569 1378.49 534.031 1376.87L539.336 1362.35C543.257 1360.5 547.177 1359.12 551.098 1358.19L543.026 1380.56C542.566 1382.18 543.257 1383.79 544.871 1384.26C546.25 1384.72 547.864 1384.03 548.557 1382.41Z" fill="white"/>
<path d="M499.435 645.374L482.138 643.297C480.524 643.528 478.91 643.528 477.294 643.99L504.277 646.988C502.433 646.527 501.049 645.834 499.435 645.374ZM510.042 650.218L470.836 645.836C469.913 646.067 469.222 646.529 468.299 646.76L512.116 651.834C511.425 651.139 510.735 650.678 510.042 650.218ZM515.346 654.368L464.148 648.604C463.455 648.834 462.994 649.297 462.303 649.527L516.269 655.754C516.039 655.059 515.577 654.829 515.346 654.368ZM517.883 658.289L459.073 651.601C458.613 651.831 458.15 652.294 457.69 652.524L518.344 659.442C518.346 658.98 518.114 658.519 517.883 658.289ZM519.267 661.977L455.155 654.599C454.694 654.829 454.462 655.292 454.001 655.752L519.499 663.131C519.267 662.67 519.267 662.21 519.267 661.977ZM519.73 665.437L451.697 657.596C451.466 658.057 451.004 658.289 450.773 658.75L519.73 666.591C519.73 666.361 519.73 665.898 519.73 665.437ZM519.73 669.128L448.929 661.056C448.699 661.517 448.469 661.749 448.006 662.21L519.499 670.511C519.73 669.819 519.73 669.588 519.73 669.128ZM519.497 672.586L446.62 664.284C446.39 664.745 446.16 664.977 445.927 665.437L519.495 673.739C519.497 673.509 519.497 673.048 519.497 672.586ZM518.346 676.506C518.346 676.276 518.576 676.276 518.576 676.046L444.546 667.514C444.316 667.974 444.085 668.207 443.853 668.667L517.653 677.199C517.883 676.969 518.114 676.737 518.346 676.506ZM513.042 679.504C513.272 679.504 513.502 679.274 513.734 679.274L442.702 671.202C442.471 671.663 442.471 671.895 442.241 672.356L511.428 680.197C512.118 679.967 512.579 679.736 513.042 679.504ZM508.198 682.041L441.778 674.43C441.548 674.89 441.548 675.123 441.548 675.583L507.046 682.962C507.274 682.734 507.737 682.503 508.198 682.041ZM504.507 685.271L440.625 677.892C440.625 678.353 440.395 678.585 440.395 679.046L503.356 686.194C504.047 685.961 504.277 685.501 504.507 685.271ZM501.97 688.498L440.162 681.35C440.162 681.811 440.162 682.043 439.932 682.503L501.047 689.422C501.509 689.191 501.74 688.959 501.97 688.498ZM500.126 691.959L439.932 685.04V686.194L499.663 693.112C499.665 692.649 499.895 692.189 500.126 691.959ZM498.742 695.417L440.165 688.729V689.882L498.281 696.57C498.512 696.109 498.742 695.647 498.742 695.417ZM498.049 698.877L440.855 692.419C440.855 692.88 441.086 693.342 441.086 693.572L498.049 700.03C498.049 699.567 498.049 699.107 498.049 698.877ZM442.469 697.263L498.049 703.72C498.049 703.26 498.049 703.028 498.049 702.567L442.007 696.109C442.009 696.34 442.239 696.8 442.469 697.263ZM444.316 700.951L498.512 707.178C498.512 706.718 498.281 706.255 498.281 706.025L443.625 699.798C443.853 700.03 444.085 700.491 444.316 700.951ZM447.083 704.872L498.742 710.867C498.742 710.406 498.742 710.174 498.742 709.713L445.93 703.718C446.39 703.951 446.62 704.411 447.083 704.872ZM451.004 708.792C451.234 708.792 451.234 709.023 451.464 709.023L497.128 714.327C497.358 714.097 497.589 713.634 497.821 713.173L449.62 707.639C450.081 707.869 450.541 708.332 451.004 708.792ZM460.92 713.636L490.44 717.096C491.593 716.866 492.747 716.636 493.9 716.403L456.538 712.022C457.922 712.483 459.536 713.173 460.92 713.636Z" fill="#B3C9EE"/>
<g clip-path="url(#clip0_600_2)">
<path d="M1553 1195H1877V1390.96H1553V1195Z" fill="#EEEEEE"/>
<path d="M1872.68 1229.13H1555.77V1209.13C1555.77 1202.13 1561.43 1196.45 1568.42 1196.45H1872.68V1229.13Z" fill="url(#paint5_linear_600_2)"/>
<path d="M1593.14 1232.69H1558.64V1212.59C1558.64 1205.64 1564.26 1200.01 1571.2 1200.01H1593.14V1232.69Z" fill="#78A9EF"/>
<path d="M1567 1207.44H1584.78V1225.26H1567V1207.44Z" fill="#89B3F4"/>
<path d="M1558.27 1246.46H1617.04V1260.32H1558.27V1246.46Z" fill="url(#paint6_linear_600_2)"/>
<path d="M1611.45 1246.46H1670.22V1260.32H1611.45V1246.46Z" fill="#F2F2F2"/>
<path d="M1664.62 1246.46H1723.4V1260.32H1664.62V1246.46Z" fill="url(#paint7_linear_600_2)"/>
<path d="M1717.8 1246.46H1776.57V1260.32H1717.8V1246.46Z" fill="#F2F2F2"/>
<path d="M1770.98 1246.46H1829.75V1260.32H1770.98V1246.46Z" fill="url(#paint8_linear_600_2)"/>
<path d="M1813.29 1246.46H1872.06V1260.32H1813.29V1246.46Z" fill="#F2F2F2"/>
<path d="M1845.39 1239.87H1615.56C1612.3 1239.87 1609.63 1237.19 1609.63 1233.93V1231.29C1609.63 1228.02 1612.3 1225.35 1615.56 1225.35H1845.39C1848.65 1225.35 1851.32 1228.02 1851.32 1231.29V1233.93C1851.32 1237.19 1848.65 1239.87 1845.39 1239.87Z" fill="#F7F7F7"/>
<path d="M1626.55 1237.3C1627.37 1237.3 1628.03 1236.63 1628.03 1235.81C1628.03 1234.99 1627.37 1234.33 1626.55 1234.33C1625.73 1234.33 1625.07 1234.99 1625.07 1235.81C1625.07 1236.63 1625.73 1237.3 1626.55 1237.3Z" fill="#23286B"/>
<path d="M1634.45 1237.3C1635.27 1237.3 1635.93 1236.63 1635.93 1235.81C1635.93 1234.99 1635.27 1234.33 1634.45 1234.33C1633.63 1234.33 1632.97 1234.99 1632.97 1235.81C1632.97 1236.63 1633.63 1237.3 1634.45 1237.3Z" fill="#23286B"/>
<path d="M1642.35 1237.3C1643.17 1237.3 1643.84 1236.63 1643.84 1235.81C1643.84 1234.99 1643.17 1234.33 1642.35 1234.33C1641.54 1234.33 1640.87 1234.99 1640.87 1235.81C1640.87 1236.63 1641.54 1237.3 1642.35 1237.3Z" fill="#23286B"/>
</g>
<g clip-path="url(#clip1_600_2)">
<path d="M1553 1195H1877V1390.96H1553V1195Z" fill="#EEEEEE"/>
<path d="M1872.68 1229.13H1555.77V1209.13C1555.77 1202.13 1561.43 1196.45 1568.42 1196.45H1872.68V1229.13Z" fill="url(#paint9_linear_600_2)"/>
<path d="M1593.14 1232.69H1558.64V1212.59C1558.64 1205.64 1564.26 1200.01 1571.2 1200.01H1593.14V1232.69Z" fill="#78A9EF"/>
<path d="M1567 1207.44H1584.78V1225.26H1567V1207.44Z" fill="#89B3F4"/>
<path d="M1558.27 1246.46H1617.04V1260.32H1558.27V1246.46Z" fill="url(#paint10_linear_600_2)"/>
<path d="M1611.45 1246.46H1670.22V1260.32H1611.45V1246.46Z" fill="#F2F2F2"/>
<path d="M1664.62 1246.46H1723.4V1260.32H1664.62V1246.46Z" fill="url(#paint11_linear_600_2)"/>
<path d="M1717.8 1246.46H1776.57V1260.32H1717.8V1246.46Z" fill="#F2F2F2"/>
<path d="M1770.98 1246.46H1829.75V1260.32H1770.98V1246.46Z" fill="url(#paint12_linear_600_2)"/>
<path d="M1813.29 1246.46H1872.06V1260.32H1813.29V1246.46Z" fill="#F2F2F2"/>
<path d="M1845.39 1239.87H1615.56C1612.3 1239.87 1609.63 1237.19 1609.63 1233.93V1231.29C1609.63 1228.02 1612.3 1225.35 1615.56 1225.35H1845.39C1848.65 1225.35 1851.32 1228.02 1851.32 1231.29V1233.93C1851.32 1237.19 1848.65 1239.87 1845.39 1239.87Z" fill="#F7F7F7"/>
<path d="M1626.55 1237.3C1627.37 1237.3 1628.03 1236.63 1628.03 1235.81C1628.03 1234.99 1627.37 1234.33 1626.55 1234.33C1625.73 1234.33 1625.07 1234.99 1625.07 1235.81C1625.07 1236.63 1625.73 1237.3 1626.55 1237.3Z" fill="#23286B"/>
<path d="M1634.45 1237.3C1635.27 1237.3 1635.93 1236.63 1635.93 1235.81C1635.93 1234.99 1635.27 1234.33 1634.45 1234.33C1633.63 1234.33 1632.97 1234.99 1632.97 1235.81C1632.97 1236.63 1633.63 1237.3 1634.45 1237.3Z" fill="#23286B"/>
<path d="M1642.35 1237.3C1643.17 1237.3 1643.84 1236.63 1643.84 1235.81C1643.84 1234.99 1643.17 1234.33 1642.35 1234.33C1641.54 1234.33 1640.87 1234.99 1640.87 1235.81C1640.87 1236.63 1641.54 1237.3 1642.35 1237.3Z" fill="#23286B"/>
</g>
<g clip-path="url(#clip2_600_2)">
<path d="M1644.6 1342.65H1642.8C1654.73 1338.04 1663.21 1326.43 1663.21 1312.81C1663.21 1295.14 1648.98 1280.82 1631.42 1280.82C1613.86 1280.82 1599.63 1295.14 1599.63 1312.81C1599.63 1326.43 1608.11 1338.04 1620.03 1342.65H1615.6C1599.87 1342.65 1586.3 1352.39 1580.54 1366.18H1679.66C1673.9 1352.39 1660.33 1342.65 1644.6 1342.65Z" fill="#23286B"/>
</g>
<g clip-path="url(#clip3_600_2)">
<rect width="28.9122" height="129.875" transform="matrix(0 1 -1 0 1842.58 1284.95)" fill="#81AEF2"/>
<path d="M1842.58 1284.95V1313.86H1712.71V1284.95H1842.58Z" fill="#81AEF2"/>
</g>
<g clip-path="url(#clip4_600_2)">
<rect width="24.3229" height="108.765" transform="matrix(0 1 -1 0 1821.93 1325.33)" fill="#428DFC"/>
<path d="M1821.93 1325.33V1349.66L1713.16 1349.66V1325.33H1821.93Z" fill="#A1C3FC"/>
</g>
<g clip-path="url(#clip5_600_2)">
<g clip-path="url(#clip6_600_2)">
<path d="M1120.48 723.857C1167.68 724.198 1210.37 740.282 1241.81 766.156C1271.98 705.198 1290.95 621.879 1291.71 529.871C1293.26 342.263 1124.91 188.947 1124.91 188.947C1124.91 188.947 954.031 339.808 952.48 527.419C951.717 619.43 969.298 703.01 998.457 764.399C1030.32 738.981 1073.28 723.515 1120.48 723.857Z" fill="url(#paint13_linear_600_2)"/>
<path d="M1166.73 452.207C1178.82 452.277 1190.73 455.083 1201.57 460.416C1188.79 433.34 1161.37 414.522 1129.45 414.291C1085.03 413.972 1048.72 449.771 1048.35 494.257C1048.08 526.221 1066.45 553.966 1093.28 567.177C1088.13 556.239 1085.51 544.272 1085.63 532.173C1086 487.688 1122.31 451.886 1166.73 452.207Z" fill="#EFEFEF"/>
<path d="M1209.22 495.42C1209.34 483.32 1206.72 471.353 1201.57 460.416C1190.72 455.083 1178.82 452.277 1166.73 452.207C1122.31 451.888 1086 487.689 1085.63 532.173C1085.51 544.272 1088.13 556.239 1093.28 567.177C1104.13 572.509 1116.03 575.316 1128.12 575.386C1172.54 575.706 1208.86 539.903 1209.22 495.42Z" fill="white"/>
<path d="M1260.05 551.82L1226.84 761.714L1331.14 836.014C1342.3 710.324 1316.89 617.113 1260.05 551.82ZM992.887 549.889L1022.62 760.237L917.094 833.022C908.028 707.189 934.98 614.351 992.887 549.889ZM1128.04 211.58C1127.39 211.96 1126.64 212.16 1125.89 212.16C1125.14 212.16 1124.39 211.96 1123.74 211.581C1123.09 211.201 1122.55 210.656 1122.18 210C1121.8 209.344 1121.61 208.6 1121.62 207.845L1122.78 67.7637C1122.78 67.201 1122.9 66.6447 1123.12 66.1263C1123.34 65.608 1123.66 65.1378 1124.06 64.7427C1124.46 64.3475 1124.93 64.0352 1125.45 63.8234C1125.97 63.6116 1126.53 63.5046 1127.09 63.5085C1127.65 63.5123 1128.21 63.6269 1128.73 63.8458C1129.24 64.0647 1129.71 64.3835 1130.11 64.7841C1130.5 65.1846 1130.81 65.6591 1131.02 66.1804C1131.24 66.7017 1131.34 67.2596 1131.34 67.8222L1130.17 207.903C1130.17 208.649 1129.97 209.38 1129.59 210.025C1129.22 210.67 1128.68 211.206 1128.04 211.58Z" fill="#FF4945"/>
<path d="M1257.09 1035.42C1256.9 1035.54 1256.68 1035.6 1256.46 1035.62C1256.24 1035.63 1256.02 1035.59 1255.81 1035.5C1255.61 1035.42 1255.43 1035.28 1255.29 1035.11C1255.14 1034.94 1255.04 1034.74 1254.99 1034.52C1239.76 971.911 1222.51 915.898 1199.06 852.911C1198.93 852.556 1198.95 852.164 1199.1 851.82C1199.26 851.476 1199.55 851.207 1199.9 851.073C1200.25 850.942 1200.65 850.957 1200.99 851.113C1201.33 851.27 1201.6 851.556 1201.74 851.909C1225.22 915.006 1242.5 971.118 1257.76 1033.84C1257.84 1034.14 1257.81 1034.46 1257.69 1034.74C1257.57 1035.03 1257.36 1035.27 1257.09 1035.42ZM997.187 1033.54C996.943 1033.69 996.663 1033.75 996.381 1033.74C996.1 1033.72 995.83 1033.62 995.606 1033.45C995.381 1033.28 995.213 1033.04 995.121 1032.78C995.029 1032.51 995.018 1032.22 995.089 1031.95C1011.39 969.441 1029.6 913.584 1054.13 850.849C1054.27 850.497 1054.54 850.213 1054.89 850.061C1055.23 849.909 1055.63 849.9 1055.98 850.038C1056.33 850.176 1056.61 850.448 1056.76 850.795C1056.92 851.141 1056.92 851.534 1056.79 851.887C1032.31 914.517 1014.13 970.273 997.851 1032.67C997.803 1032.85 997.72 1033.02 997.606 1033.17C997.492 1033.32 997.349 1033.45 997.187 1033.54Z" fill="#5BABF2"/>
<path d="M1267.84 1098.77L1242.2 1077.59L1263.39 1051.9L1289.02 1073.08L1267.84 1098.77Z" fill="#FF4945"/>
<path d="M1076.27 1163.1L1086.49 1131.4L1118.14 1141.6L1107.91 1173.3L1076.27 1163.1Z" fill="#1B236D"/>
<path d="M989.623 961.937L972.153 947.5L986.589 929.99L1004.06 944.427L989.623 961.937ZM1104.8 1109.42C1104.58 1109.55 1104.34 1109.61 1104.09 1109.61C1103.84 1109.61 1103.59 1109.54 1103.37 1109.42C1103.16 1109.29 1102.98 1109.11 1102.85 1108.89C1102.73 1108.67 1102.66 1108.43 1102.66 1108.18L1104.32 908.37C1104.32 907.991 1104.47 907.629 1104.74 907.363C1105.01 907.096 1105.38 906.948 1105.76 906.951C1106.13 906.953 1106.5 907.106 1106.76 907.376C1107.03 907.646 1107.17 908.01 1107.17 908.389L1105.52 1108.19C1105.51 1108.44 1105.45 1108.69 1105.32 1108.9C1105.2 1109.12 1105.02 1109.29 1104.8 1109.42ZM1185.03 1024.57C1184.83 1024.69 1184.61 1024.75 1184.38 1024.76C1184.15 1024.77 1183.92 1024.73 1183.71 1024.63C1183.5 1024.53 1183.32 1024.38 1183.18 1024.2C1183.04 1024.02 1182.95 1023.8 1182.91 1023.57L1174.64 974.279C1174.58 973.905 1174.67 973.521 1174.89 973.212C1175.11 972.903 1175.44 972.694 1175.82 972.632C1176.19 972.569 1176.57 972.657 1176.88 972.877C1177.19 973.097 1177.4 973.431 1177.46 973.805L1185.73 1023.1C1185.78 1023.38 1185.73 1023.68 1185.61 1023.94C1185.49 1024.21 1185.29 1024.42 1185.03 1024.57Z" fill="#5BABF2"/>
<path d="M1176.18 576.902C1161.54 585.389 1144.91 589.797 1128 589.665C1102.7 589.482 1079 579.446 1061.27 561.405C1043.53 543.366 1033.87 519.481 1034.08 494.15C1034.36 460.744 1052.49 429.559 1081.39 412.77C1096.03 404.282 1112.66 399.874 1129.57 400.004C1181.79 400.38 1223.91 443.228 1223.48 495.514C1223.21 528.931 1205.08 560.112 1176.18 576.902ZM1095.68 437.478C1075.47 449.218 1062.8 471.013 1062.61 494.361C1062.52 503.066 1064.15 511.703 1067.41 519.77C1070.67 527.837 1075.49 535.175 1081.61 541.359C1087.69 547.576 1094.94 552.522 1102.94 555.911C1110.95 559.301 1119.55 561.067 1128.24 561.106C1140.05 561.201 1151.67 558.125 1161.89 552.2C1182.1 540.46 1194.78 518.661 1194.97 495.313C1195.27 458.775 1165.83 428.835 1129.34 428.572C1117.53 428.477 1105.91 431.553 1095.68 437.478Z" fill="#FF4945"/>
<path d="M1033.98 362.112C1128.74 362.798 1215.13 393.762 1281.16 444.387C1244.49 297.841 1124.91 188.946 1124.91 188.946C1124.91 188.946 1045.25 259.292 994.22 363.632C1007.44 362.527 1020.71 362.02 1033.98 362.112Z" fill="#5BABF2"/>
<path d="M1238.22 327.521C1189.44 238.321 1124.99 179.609 1124.99 179.609C1124.99 179.609 1059.57 237.383 1009.32 325.867L1238.22 327.521Z" fill="url(#paint14_linear_600_2)"/>
</g>
<g clip-path="url(#clip7_600_2)">
<path d="M1448.75 1120.15C1455.2 1120.15 1460.43 1114.9 1460.43 1108.42C1460.43 1101.94 1455.2 1096.69 1448.75 1096.69C1442.3 1096.69 1437.07 1101.94 1437.07 1108.42C1437.07 1114.9 1442.3 1120.15 1448.75 1120.15Z" fill="#D9E021"/>
<path d="M1289.49 873.892L1293.05 862.39L1304.5 865.962L1300.94 877.464L1289.49 873.892Z" fill="#A1C3FC"/>
<path d="M1353.75 910.044L1363.43 878.728L1394.6 888.454L1384.92 919.771L1353.75 910.044Z" fill="#E94A47"/>
<path d="M1307.7 1029.28L1317.39 997.962L1348.56 1007.69L1338.87 1039L1307.7 1029.28Z" fill="#1D72D8"/>
<path d="M1336.04 940.43C1335.79 940.431 1335.55 940.36 1335.34 940.226C1335.13 940.092 1334.97 939.9 1334.86 939.674C1319.58 906.601 1329.01 863.96 1356.78 840.489C1357.05 840.298 1357.38 840.215 1357.7 840.257C1358.03 840.298 1358.32 840.461 1358.53 840.713C1358.74 840.964 1358.85 841.286 1358.84 841.615C1358.82 841.943 1358.68 842.253 1358.45 842.484C1331.54 865.222 1322.41 906.536 1337.22 938.58C1337.36 938.894 1337.37 939.252 1337.26 939.577C1337.14 939.902 1336.9 940.166 1336.59 940.314C1336.41 940.39 1336.23 940.43 1336.04 940.43ZM1450.55 1068.25C1450.29 1068.25 1450.04 1068.17 1449.82 1068.03C1449.61 1067.88 1449.44 1067.68 1449.34 1067.44C1449.25 1067.2 1449.22 1066.93 1449.28 1066.68C1449.33 1066.42 1449.46 1066.19 1449.65 1066.01C1468.45 1047.79 1501.44 1046.41 1521.69 1062.99C1521.82 1063.1 1521.93 1063.23 1522.02 1063.38C1522.1 1063.53 1522.15 1063.7 1522.17 1063.87C1522.19 1064.04 1522.17 1064.21 1522.13 1064.38C1522.08 1064.55 1522 1064.7 1521.89 1064.83C1521.78 1064.97 1521.64 1065.08 1521.49 1065.16C1521.34 1065.24 1521.18 1065.29 1521 1065.31C1520.83 1065.32 1520.66 1065.3 1520.5 1065.25C1520.33 1065.2 1520.18 1065.12 1520.05 1065.01C1500.77 1049.22 1469.35 1050.54 1451.45 1067.89C1451.21 1068.12 1450.89 1068.25 1450.55 1068.25Z" fill="#23286B"/>
</g>
<g clip-path="url(#clip8_600_2)">
<path d="M858.436 875.598L854.155 866.302L844.879 870.593L849.161 879.888L858.436 875.598Z" fill="#A1C3FC"/>
<path d="M870.116 946.375L858.457 921.066L833.203 932.749L844.861 958.059L870.116 946.375Z" fill="#E94A47"/>
<path d="M833.642 1032.78L821.984 1007.47L796.729 1019.16L808.387 1044.47L833.642 1032.78Z" fill="#1D72D8"/>
<path d="M845.172 990.116C845.171 989.93 845.124 989.747 845.035 989.583C844.946 989.42 844.817 989.282 844.661 989.181C819.403 973.022 807.114 939.225 816.065 910.565C816.108 910.426 816.124 910.28 816.112 910.135C816.099 909.99 816.057 909.849 815.99 909.72C815.923 909.591 815.83 909.477 815.719 909.384C815.607 909.291 815.478 909.221 815.34 909.178C815.201 909.134 815.055 909.118 814.911 909.131C814.766 909.144 814.626 909.185 814.497 909.253C814.368 909.32 814.254 909.413 814.161 909.525C814.068 909.637 813.998 909.766 813.956 909.905C804.712 939.485 817.403 974.371 843.471 991.054C843.638 991.16 843.831 991.22 844.03 991.226C844.228 991.233 844.424 991.186 844.598 991.09C844.772 990.994 844.917 990.853 845.018 990.682C845.119 990.51 845.172 990.315 845.172 990.116ZM946.497 873.704C946.497 873.68 946.497 873.658 946.494 873.634C946.476 873.341 946.342 873.067 946.122 872.873C945.902 872.679 945.615 872.581 945.323 872.599C923.105 874.013 903.278 894.025 902.027 916.3C901.945 916.922 902.46 917.434 903.068 917.467C903.213 917.476 903.358 917.455 903.495 917.407C903.632 917.359 903.758 917.285 903.866 917.188C903.974 917.091 904.062 916.974 904.125 916.842C904.188 916.711 904.225 916.569 904.233 916.424C905.427 895.213 924.306 876.155 945.46 874.808C945.74 874.791 946.003 874.667 946.196 874.462C946.388 874.257 946.496 873.986 946.497 873.704Z" fill="#23286B"/>
</g>
<g clip-path="url(#clip9_600_2)">
<path d="M1261.75 884.76C1270.15 884.261 1278.4 884.263 1286.52 884.76C1286.89 893.559 1286.94 901.908 1286.52 909.572C1278.27 909.927 1270 909.927 1261.75 909.572C1261.28 901.56 1261.31 893.271 1261.75 884.76Z" fill="#E94A47"/>
</g>
<g clip-path="url(#clip10_600_2)">
<path d="M940.48 1129.53C947.865 1129.53 953.852 1123.53 953.852 1116.13C953.852 1108.73 947.865 1102.73 940.48 1102.73C933.094 1102.73 927.107 1108.73 927.107 1116.13C927.107 1123.53 933.094 1129.53 940.48 1129.53Z" fill="#23286B"/>
</g>
<g clip-path="url(#clip11_600_2)">
<path d="M1441.18 1001.55C1435.04 1005.1 1428.81 1008.2 1422.51 1010.89C1418.93 1004.4 1415.76 998.133 1413.2 992.199C1419.29 988.822 1425.52 985.707 1431.87 982.864C1435.23 988.722 1438.31 994.978 1441.18 1001.55Z" fill="#A1C3FC"/>
</g>
<g clip-path="url(#clip12_600_2)">
<path d="M1380.42 1081.7L1370.26 1097.38L1356.35 1087.6L1366.51 1071.92L1380.42 1081.7Z" fill="#D9E021"/>
</g>
<g clip-path="url(#clip13_600_2)">
<path d="M1143.07 927.252C1151.56 927.252 1158.45 920.355 1158.45 911.847C1158.45 903.339 1151.56 896.442 1143.07 896.442C1134.57 896.442 1127.69 903.339 1127.69 911.847C1127.69 920.355 1134.57 927.252 1143.07 927.252Z" fill="#D9E021"/>
</g>
<g clip-path="url(#clip14_600_2)">
<path d="M1008.68 828.316L1000.21 841.52L988.619 833.292L997.084 820.087L1008.68 828.316Z" fill="#D9E021"/>
</g>
<g clip-path="url(#clip15_600_2)">
<path d="M985.945 1049.15L977.922 1041.11L985.945 1033.08L993.968 1041.11L985.945 1049.15Z" fill="#A1C3FC"/>
</g>
<g clip-path="url(#clip16_600_2)">
<path d="M907.405 1039.53C903.362 1041.34 899.294 1042.88 895.205 1044.15C893.391 1039.89 891.817 1035.79 890.606 1031.93C894.605 1030.22 898.676 1028.68 902.807 1027.32C904.523 1031.17 906.043 1035.26 907.405 1039.53Z" fill="#23286B"/>
</g>
<g clip-path="url(#clip17_600_2)">
<path d="M1134.18 829.248C1129.32 829.537 1124.54 829.536 1119.84 829.248C1119.62 824.154 1119.59 819.321 1119.84 814.883C1124.62 814.678 1129.4 814.678 1134.18 814.883C1134.45 819.522 1134.43 824.32 1134.18 829.248Z" fill="#23286B"/>
</g>
<g clip-path="url(#clip18_600_2)">
<path d="M1484.29 940.171C1478.44 944.181 1472.48 947.766 1466.4 950.933C1462.33 944.744 1458.68 938.743 1455.67 933.026C1461.47 929.185 1467.44 925.594 1473.56 922.264C1477.36 927.842 1480.92 933.839 1484.29 940.171Z" fill="#23286B"/>
</g>
<g clip-path="url(#clip19_600_2)">
<path d="M734.549 956.722C741.195 956.722 746.584 951.325 746.584 944.666C746.584 938.008 741.195 932.61 734.549 932.61C727.902 932.61 722.514 938.008 722.514 944.666C722.514 951.325 727.902 956.722 734.549 956.722Z" fill="#D9E021"/>
</g>
<g clip-path="url(#clip20_600_2)">
<path d="M814.113 1167.03L802.747 1155.65L814.113 1144.26L825.479 1155.65L814.113 1167.03Z" fill="#A1C3FC"/>
</g>
</g>
<g clip-path="url(#clip21_600_2)">
<path d="M465.412 590.386L419.937 635.08L351.132 634.688L300.486 681.386L236.768 679.022L261.251 879.526L353.805 880.056L421.903 817.247L514.458 817.778L582.556 754.968L465.412 590.386Z" fill="#A1C3FC"/>
<path d="M236.768 679.022L261.251 879.526L353.805 880.056L300.486 681.386L236.768 679.022Z" fill="#81AEF2"/>
<path d="M351.132 634.688L421.903 817.247L514.458 817.778L419.937 635.08L351.132 634.688Z" fill="#81AEF2"/>
<path d="M465.412 590.386L582.556 754.968L675.111 755.499L539.303 588.806L465.412 590.386Z" fill="#81AEF2"/>
<path d="M236.768 679.022L261.251 879.526L193.153 942.335L181.119 727.66L236.768 679.022Z" fill="#A1C3FC"/>
<path d="M185.607 807.406L217.927 748.147L243.01 730.342L236.768 679.022L181.119 727.66L185.607 807.406Z" fill="#428DFC"/>
<path d="M236.768 679.022L243.01 730.342L269.684 730.224L305.8 701.133L300.486 681.386L236.768 679.022Z" fill="#1D72D8"/>
<path d="M305.8 701.133L313.637 669.278L300.486 681.386L305.8 701.133Z" fill="#428DFC"/>
<path d="M428.762 626.401L453.71 631.139L480.035 611.003L465.412 590.386L428.762 626.401Z" fill="#428DFC"/>
<path d="M465.412 590.386L480.035 611.003L519.035 609.222L543.916 594.417L539.303 588.806L465.412 590.386Z" fill="#1D72D8"/>
<path d="M210.109 926.708L213.358 891.569L255.686 833.979L261.251 879.526L210.109 926.708Z" fill="#23286B"/>
<path d="M255.686 833.979L302.144 815.969L341.071 832.616L353.805 880.056L261.251 879.526" fill="#151A4F"/>
<path d="M341.071 832.616L374.151 809.278L410.764 827.504L353.805 880.056L341.071 832.616Z" fill="#23286B"/>
<path d="M456.508 817.462L463.535 794.585L496.037 782.083L514.458 817.778L456.508 817.462Z" fill="#151A4F"/>
<path d="M514.458 817.778L496.037 782.083L517.87 751.617L522.637 712.093L538.45 693.014L582.556 754.968L514.458 817.778Z" fill="#23286B"/>
<path d="M538.45 693.014L589.545 679.924L622.443 690.828L675.11 755.499L582.556 754.968L538.45 693.014Z" fill="#151A4F"/>
<path d="M433.162 817.361L402.813 770.518L318.69 757.275L279.449 774.532L254.432 814.897L187.377 839.139L187.188 836.389L252.685 812.653L277.65 772.406L277.989 772.275L318.384 754.473L404.479 768.023L436.386 817.376L433.162 817.361Z" fill="white"/>
<path d="M350.417 761.137L347.74 760.519L362.788 693.937L331.362 652.866L333.375 651.015L365.665 693.308L350.417 761.137Z" fill="white"/>
<path d="M404.489 770.063L402.091 768.656L441.147 703.378L456.089 704.693L502.441 642.135L579.799 638.432L581.88 641.033L503.863 644.797L457.322 707.622L442.667 706.294L404.489 770.063Z" fill="white"/>
<path d="M253.415 815.291L254.432 814.897L279.449 774.532L318.69 757.275L320.949 757.568L320.153 754.761L318.384 754.473L277.65 772.406L252.978 812.151L253.415 815.291Z" fill="#D6D7D8"/>
<path d="M436.386 817.376L433.162 817.361L405.203 774.167L402.709 767.735L441.147 703.378L456.089 704.693L457.322 707.622L442.667 706.294L405.16 769.024L436.386 817.376Z" fill="#D6D7D8"/>
<path d="M502.441 642.135L502.304 642.286L504.15 644.783L581.88 641.033L579.799 638.432L502.441 642.135Z" fill="#D6D7D8"/>
</g>
<g clip-path="url(#clip22_600_2)">
<path d="M1923.93 1007.29L1809.05 840.18C1804.52 833.587 1806.19 824.57 1812.78 820.037C1819.38 815.505 1828.39 817.177 1832.93 823.769L1947.8 990.883C1952.33 997.476 1950.66 1006.49 1944.07 1011.03C1937.48 1015.56 1928.46 1013.89 1923.93 1007.29Z" fill="#23286B"/>
<path d="M1750.76 866.187C1774.93 901.347 1823.03 910.257 1858.19 886.088C1893.35 861.918 1902.26 813.823 1878.09 778.663C1853.92 743.503 1805.82 734.593 1770.66 758.762C1735.5 782.931 1726.59 831.027 1750.76 866.187Z" fill="url(#paint15_linear_600_2)"/>
<path d="M1769.86 853.059C1786.78 877.67 1820.45 883.907 1845.06 866.989C1869.67 850.07 1875.91 816.403 1858.99 791.791C1842.07 767.179 1808.4 760.943 1783.79 777.861C1759.18 794.78 1752.94 828.447 1769.86 853.059Z" fill="url(#paint16_linear_600_2)"/>
<path d="M1808.22 800.907C1811.65 805.888 1818.46 807.15 1823.44 803.726C1828.43 800.302 1829.69 793.488 1826.26 788.507C1822.84 783.525 1816.03 782.263 1811.04 785.687C1806.06 789.111 1804.8 795.925 1808.22 800.907Z" fill="white"/>
</g>
<g clip-path="url(#clip23_600_2)">
<path d="M1835.09 332.206C1829.99 287.588 1789.51 255.232 1744.6 260.681C1720.11 263.406 1698.34 277.03 1685.07 297.806C1653.43 281.458 1614.65 293.719 1597.98 325.394C1595.26 330.503 1593.21 335.953 1592.19 341.743C1558.51 342.765 1531.98 371.034 1533 405.094C1534.02 438.132 1561.24 464.357 1594.24 464.357H1811.96C1849.38 464.357 1880 434.044 1880 396.238C1880 367.628 1861.97 342.084 1835.09 332.206Z" fill="#A1C3FC"/>
</g>
<defs>
<linearGradient id="paint0_linear_600_2" x1="1526.73" y1="930.448" x2="1821.56" y2="930.448" gradientUnits="userSpaceOnUse">
<stop stop-color="#B9D3FD"/>
<stop offset="1" stop-color="#89B3F4"/>
</linearGradient>
<linearGradient id="paint1_linear_600_2" x1="1622.97" y1="999.218" x2="1930.52" y2="999.218" gradientUnits="userSpaceOnUse">
<stop stop-color="#DEEAFE"/>
<stop offset="1" stop-color="#E9F1FE"/>
</linearGradient>
<linearGradient id="paint2_linear_600_2" x1="555.706" y1="981.607" x2="1686.22" y2="981.607" gradientUnits="userSpaceOnUse">
<stop stop-color="#EEEEEE"/>
<stop offset="1" stop-color="#D6D7D8"/>
</linearGradient>
<linearGradient id="paint3_linear_600_2" x1="672.874" y1="1212.67" x2="413.51" y2="1284.16" gradientUnits="userSpaceOnUse">
<stop stop-color="#B9D3FD"/>
<stop offset="1" stop-color="#89B3F4"/>
</linearGradient>
<linearGradient id="paint4_linear_600_2" x1="605.085" y1="1296.31" x2="334.434" y2="1370.53" gradientUnits="userSpaceOnUse">
<stop stop-color="#DEEAFE"/>
<stop offset="1" stop-color="#E9F1FE"/>
</linearGradient>
<linearGradient id="paint5_linear_600_2" x1="1555.77" y1="1212.79" x2="1872.68" y2="1212.79" gradientUnits="userSpaceOnUse">
<stop stop-color="#B0CDFC"/>
<stop offset="1" stop-color="#81AEF2"/>
</linearGradient>
<linearGradient id="paint6_linear_600_2" x1="1558.27" y1="1253.39" x2="1617.04" y2="1253.39" gradientUnits="userSpaceOnUse">
<stop stop-color="#EEEEEE"/>
<stop offset="1" stop-color="#D6D7D8"/>
</linearGradient>
<linearGradient id="paint7_linear_600_2" x1="1664.62" y1="1253.39" x2="1723.4" y2="1253.39" gradientUnits="userSpaceOnUse">
<stop stop-color="#EEEEEE"/>
<stop offset="1" stop-color="#D6D7D8"/>
</linearGradient>
<linearGradient id="paint8_linear_600_2" x1="1770.98" y1="1253.39" x2="1829.75" y2="1253.39" gradientUnits="userSpaceOnUse">
<stop stop-color="#EEEEEE"/>
<stop offset="1" stop-color="#D6D7D8"/>
</linearGradient>
<linearGradient id="paint9_linear_600_2" x1="1555.77" y1="1212.79" x2="1872.68" y2="1212.79" gradientUnits="userSpaceOnUse">
<stop stop-color="#B0CDFC"/>
<stop offset="1" stop-color="#81AEF2"/>
</linearGradient>
<linearGradient id="paint10_linear_600_2" x1="1558.27" y1="1253.39" x2="1617.04" y2="1253.39" gradientUnits="userSpaceOnUse">
<stop stop-color="#EEEEEE"/>
<stop offset="1" stop-color="#D6D7D8"/>
</linearGradient>
<linearGradient id="paint11_linear_600_2" x1="1664.62" y1="1253.39" x2="1723.4" y2="1253.39" gradientUnits="userSpaceOnUse">
<stop stop-color="#EEEEEE"/>
<stop offset="1" stop-color="#D6D7D8"/>
</linearGradient>
<linearGradient id="paint12_linear_600_2" x1="1770.98" y1="1253.39" x2="1829.75" y2="1253.39" gradientUnits="userSpaceOnUse">
<stop stop-color="#EEEEEE"/>
<stop offset="1" stop-color="#D6D7D8"/>
</linearGradient>
<linearGradient id="paint13_linear_600_2" x1="952.907" y1="475.884" x2="1292.14" y2="478.705" gradientUnits="userSpaceOnUse">
<stop stop-color="#92C4FE"/>
<stop offset="1" stop-color="#5BABF2"/>
</linearGradient>
<linearGradient id="paint14_linear_600_2" x1="1009.93" y1="252.323" x2="1238.83" y2="254.226" gradientUnits="userSpaceOnUse">
<stop stop-color="#FF4945"/>
<stop offset="1" stop-color="#F92424"/>
</linearGradient>
<linearGradient id="paint15_linear_600_2" x1="1770.66" y1="758.762" x2="1858.19" y2="886.088" gradientUnits="userSpaceOnUse">
<stop stop-color="#23286B"/>
<stop offset="1" stop-color="#151A4F"/>
</linearGradient>
<linearGradient id="paint16_linear_600_2" x1="1783.79" y1="777.861" x2="1845.06" y2="866.989" gradientUnits="userSpaceOnUse">
<stop stop-color="#EEEEEE"/>
<stop offset="1" stop-color="#D6D7D8"/>
</linearGradient>
<clipPath id="clip0_600_2">
<rect width="324" height="195.96" fill="white" transform="translate(1553 1195)"/>
</clipPath>
<clipPath id="clip1_600_2">
<rect width="324" height="195.96" fill="white" transform="translate(1553 1195)"/>
</clipPath>
<clipPath id="clip2_600_2">
<rect width="99.1275" height="85.3598" fill="white" transform="translate(1580.54 1280.82)"/>
</clipPath>
<clipPath id="clip3_600_2">
<rect width="28.9122" height="129.875" fill="white" transform="matrix(0 1 -1 0 1842.58 1284.95)"/>
</clipPath>
<clipPath id="clip4_600_2">
<rect width="24.3229" height="108.765" fill="white" transform="matrix(0 1 -1 0 1821.93 1325.33)"/>
</clipPath>
<clipPath id="clip5_600_2">
<rect width="932" height="1245" fill="white" transform="translate(645)"/>
</clipPath>
<clipPath id="clip6_600_2">
<rect width="607.65" height="966.457" fill="white" transform="matrix(0.864687 -0.502311 0.500832 0.865545 608.25 364.229)"/>
</clipPath>
<clipPath id="clip7_600_2">
<rect width="232.675" height="279.967" fill="white" transform="translate(1289.49 840.181)"/>
</clipPath>
<clipPath id="clip8_600_2">
<rect width="178.161" height="149.768" fill="white" transform="matrix(0 1 1 0 796.729 866.302)"/>
</clipPath>
<clipPath id="clip9_600_2">
<rect width="25.4071" height="25.4516" fill="white" transform="matrix(-1 0 0 -1 1286.82 909.838)"/>
</clipPath>
<clipPath id="clip10_600_2">
<rect width="26.7443" height="26.7911" fill="white" transform="translate(927.107 1102.73)"/>
</clipPath>
<clipPath id="clip11_600_2">
<rect width="21.4119" height="21.4164" fill="white" transform="matrix(0.894436 -0.447197 0.445694 0.895186 1412.88 992.111)"/>
</clipPath>
<clipPath id="clip12_600_2">
<rect width="24.0698" height="25.4516" fill="white" transform="translate(1356.35 1071.92)"/>
</clipPath>
<clipPath id="clip13_600_2">
<rect width="30.7559" height="30.8098" fill="white" transform="translate(1127.69 896.442)"/>
</clipPath>
<clipPath id="clip14_600_2">
<rect width="20.0582" height="21.4329" fill="white" transform="translate(988.619 820.087)"/>
</clipPath>
<clipPath id="clip15_600_2">
<rect width="16.0466" height="16.0747" fill="white" transform="translate(977.922 1033.08)"/>
</clipPath>
<clipPath id="clip16_600_2">
<rect width="13.3809" height="13.3868" fill="white" transform="matrix(0.93531 -0.35383 0.352381 0.935857 890.41 1031.86)"/>
</clipPath>
<clipPath id="clip17_600_2">
<rect width="14.7094" height="14.7351" fill="white" transform="translate(1119.67 814.729)"/>
</clipPath>
<clipPath id="clip18_600_2">
<rect width="21.4131" height="21.4152" fill="white" transform="matrix(0.856861 -0.515548 0.514068 0.85775 1455.34 932.964)"/>
</clipPath>
<clipPath id="clip19_600_2">
<rect width="24.0698" height="24.112" fill="white" transform="translate(722.514 932.61)"/>
</clipPath>
<clipPath id="clip20_600_2">
<rect width="22.7326" height="22.7725" fill="white" transform="translate(802.747 1144.26)"/>
</clipPath>
<clipPath id="clip21_600_2">
<rect width="516.905" height="230.36" fill="white" transform="translate(110 727.836) rotate(-21.1893)"/>
</clipPath>
<clipPath id="clip22_600_2">
<rect width="306.116" height="154.507" fill="white" transform="translate(1834.33 715) rotate(55.4951)"/>
</clipPath>
<clipPath id="clip23_600_2">
<rect width="347" height="204.357" fill="white" transform="translate(1533 260)"/>
</clipPath>
</defs>
</svg>
